<svg xmlns="http://www.w3.org/2000/svg" viewBox="0 0 20 20">
  <path fill="none" 
  stroke="currentColor" 
  stroke-linecap="round" stroke-width="1" 
  d="
M15.6987239120988,6.8735730020239805
A6.5,6.5 0 0,1 16.240324053508537,8.181111408798552
L18.827067523629076,8.244187101854846
A9,9 0 0,1 18.827067523629076,11.755812898145154
L16.240324053508537,11.818888591201448
A6.5,6.5 0 0,1 15.6987239120988,13.126426997976019
L17.483226510722908,15.000132097176419
A9,9 0 0,1 15.00013209717642,17.483226510722908
L13.12642699797602,15.6987239120988
A6.5,6.5 0 0,1 11.818888591201448,16.240324053508537
L11.755812898145155,18.827067523629076
A9,9 0 0,1 8.244187101854846,18.827067523629076
L8.181111408798552,16.240324053508537
A6.5,6.5 0 0,1 6.873573002023981,15.698723912098801
L4.999867902823582,17.483226510722908
A9,9 0 0,1 2.516773489277095,15.000132097176422
L4.3012760879012015,13.126426997976022
A6.5,6.5 0 0,1 3.7596759464914644,11.81888859120145
L1.1729324763709261,11.755812898145157
A9,9 0 0,1 1.1729324763709243,8.244187101854848
L3.7596759464914626,8.181111408798554
A6.5,6.5 0 0,1 4.301276087901199,6.873573002023981
L2.5167734892770905,4.999867902823582
A9,9 0 0,1 4.99986790282358,2.516773489277093
L6.87357300202398,4.3012760879012
A6.5,6.5 0 0,1 8.18111140879855,3.7596759464914644
L8.244187101854841,1.172932476370928
A9,9 0 0,1 11.755812898145146,1.1729324763709243
L11.818888591201443,3.7596759464914618
A6.5,6.5 0 0,1 13.126426997976019,4.301276087901199
L15.000132097176417,2.5167734892770905
A9,9 0 0,1 17.483226510722908,4.99986790282358
L15.6987239120988,6.87357300202398
M13,10
A3,3 0 1,0 7,10
A3,3 0 1,0 13,10
"/>
</svg>
