<svg xmlns="http://www.w3.org/2000/svg" viewBox="0 0 18 18">
  <path fill="currentColor" d="M15.635 17c1.266 0 2.06-.912 2.06-2.06a2.01 2.01 0 0 0-.27-1.013L10.78 2.039A2.02 2.02 0 0 0 9.007 1c-.701 0-1.402.355-1.782 1.039L.589 13.935c-.186.32-.279.659-.279 1.005 0 1.148.794 2.06 2.06 2.06h13.265zm-6.628-5.784c-.448 0-.693-.253-.71-.709l-.118-4.17c-.017-.457.338-.795.82-.795.472 0 .835.347.818.803L9.7 10.507c-.017.465-.27.71-.692.71zM9 14c-.518 0-1-.426-1-1 0-.574.473-1 1-1 .518 0 1 .417 1 1s-.491 1-1 1z"/>
</svg>
