<?xml version="1.0" encoding="utf-8"?>
<!-- Generator: Adobe Illustrator 15.1.0, SVG Export Plug-In . SVG Version: 6.00 Build 0)  -->
<!DOCTYPE svg PUBLIC "-//W3C//DTD SVG 1.1//EN" "http://www.w3.org/Graphics/SVG/1.1/DTD/svg11.dtd">
<svg version="1.1" id="Layer_1" xmlns="http://www.w3.org/2000/svg" xmlns:xlink="http://www.w3.org/1999/xlink" x="0px" y="0px"
	 width="491.735px" height="503.501px" viewBox="0 0 491.735 503.501" enable-background="new 0 0 491.735 503.501"
	 xml:space="preserve">
<g>
	<path fill="#D2BC2A" d="M439.287,197.396H255.932V14.04C355.881,17.699,435.632,97.781,439.287,197.396 M241.646,211.683v183.356
		c-99.948-3.659-179.699-83.741-183.354-183.356H241.646z M453.329,204.54C453.329,91.576,361.754,0,248.789,0h-7.143h-0.001
		l-0.003,14.051h0.003v183.345H58.275H44.25v0.002c0,0.013,0,4.762,0,7.141c0,112.965,91.576,204.54,204.54,204.54h7.143
		l0.005-14.051h-0.005V211.683h183.372h14.025C453.329,211.683,453.329,206.923,453.329,204.54"/>
</g>
<path fill="#1D3156" d="M241.526,197.382h-24.123l24.123-26.319V197.382z M297.025,211.668l-0.004-14.288h-41.089v-62.658
	l-70.816,76.96h56.523l0.006,52.554l14.287,0.014v-52.582H297.025z"/>
<polygon fill="#1D3156" points="128.697,264.244 147.849,264.244 147.849,173.957 180.833,173.957 180.833,156.628 95.713,156.628 
	95.713,173.957 128.697,173.957 "/>
<polygon fill="#1D3156" points="339.451,264.244 358.603,264.244 358.603,173.957 391.586,173.957 391.586,156.628 306.467,156.628 
	306.467,173.957 339.451,173.957 "/>
<g>
	<path fill="#1D3156" d="M482.727,494.1c-2.297,1.232-4.595,1.681-7.059,1.681c-7.507,0-12.717-5.209-12.717-12.547
		c0-7.45,5.21-12.549,12.829-12.549c3.977,0,7.282,1.4,10.135,4.426l5.82-5.37c-3.805-4.426-9.513-6.776-16.404-6.776
		c-12.492,0-21.557,8.449-21.557,20.27c0,11.818,9.064,20.268,21.389,20.268c5.603,0,11.536-1.734,15.844-4.98v-15.904h-8.28V494.1z
		 M435.171,463.636v23.796l-19.493-23.796h-7.498v39.193h8.952v-23.796l19.551,23.796h7.441v-39.193H435.171z M387.125,502.829
		h9.064v-39.193h-9.064V502.829z M362.344,503.501c6.832,0,12.487-2.462,16.184-6.994l-5.824-5.376
		c-2.632,3.081-5.936,4.649-9.855,4.649c-7.336,0-12.545-5.153-12.545-12.547c0-7.395,5.209-12.549,12.545-12.549
		c3.92,0,7.224,1.569,9.855,4.594l5.824-5.37c-3.696-4.482-9.352-6.944-16.128-6.944c-12.208,0-21.272,8.449-21.272,20.27
		C341.127,495.052,350.191,503.501,362.344,503.501 M310.915,487.548l6.216-15.008l6.215,15.008H310.915z M329.672,502.829h9.52
		l-17.525-39.193h-8.959l-17.469,39.193h9.294l3.472-8.4h18.197L329.672,502.829z M281.864,477.856c0,4.259-2.802,6.836-8.349,6.836
		h-7.395v-13.672h7.395C279.062,471.021,281.864,473.542,281.864,477.856 M291.77,502.829l-8.786-12.598
		c5.092-2.183,8.058-6.491,8.058-12.375c0-8.794-6.547-14.221-17.021-14.221h-16.964v39.193h9.064v-10.92h7.899h0.448l7.562,10.92
		H291.77z M227.384,502.829h9.065v-31.809h12.544v-7.385H214.84v7.385h12.544V502.829z"/>
</g>
<polygon fill="#D2BC2A" points="208.76,487.212 202.376,487.212 202.376,479.876 193.815,479.876 193.815,487.212 183.287,487.212 
	200.418,463.636 190.903,463.636 172.423,488.499 172.423,494.597 193.535,494.597 193.535,502.829 202.376,502.829 
	202.376,494.597 208.76,494.597 "/>
<g>
	<path fill="#1D3156" d="M152.445,463.636v15.456H134.63v-15.456h-9.065v39.193h9.065v-16.072h17.815v16.072h9.065v-39.193H152.445z
		 M100.902,503.501c6.832,0,12.488-2.462,16.184-6.994l-5.824-5.376c-2.632,3.081-5.936,4.649-9.856,4.649
		c-7.336,0-12.544-5.153-12.544-12.547c0-7.395,5.208-12.549,12.544-12.549c3.92,0,7.224,1.569,9.856,4.594l5.824-5.37
		c-3.696-4.482-9.352-6.944-16.128-6.944c-12.208,0-21.273,8.449-21.273,20.27C79.685,495.052,88.75,503.501,100.902,503.501
		 M51.225,495.556v-9.079h18.2v-7.049h-18.2v-8.519h20.608v-7.273H42.216v39.193h30.345v-7.273H51.225z M12.544,502.829h9.065
		v-31.809h12.544v-7.385H0v7.385h12.544V502.829z"/>
</g>
</svg>
